<svg width="76" height="75" viewBox="0 0 76 75" fill="none" xmlns="http://www.w3.org/2000/svg">
<g filter="url(#filter0_d_274_1805)">
<circle cx="38" cy="35.5" r="22.5" fill="white"/>
<circle cx="38" cy="35.5" r="22" stroke="#74512D"/>
</g>
<g clip-path="url(#clip0_274_1805)">
<path d="M28.5 36C28.5 30.486 32.986 26 38.5 26C40.727 26 42.8348 26.7165 44.5956 28.072L42.2718 31.0907C41.183 30.2526 39.8788 29.8095 38.5 29.8095C35.0866 29.8095 32.3095 32.5866 32.3095 36C32.3095 39.4134 35.0866 42.1905 38.5 42.1905C41.2492 42.1905 43.5855 40.3892 44.3907 37.9048H38.5V34.0952H48.5V36C48.5 41.514 44.014 46 38.5 46C32.986 46 28.5 41.514 28.5 36Z" fill="#AF8F6F"/>
</g>
<defs>
<filter id="filter0_d_274_1805" x="0.5" y="0" width="75" height="75" filterUnits="userSpaceOnUse" color-interpolation-filters="sRGB">
<feFlood flood-opacity="0" result="BackgroundImageFix"/>
<feColorMatrix in="SourceAlpha" type="matrix" values="0 0 0 0 0 0 0 0 0 0 0 0 0 0 0 0 0 0 127 0" result="hardAlpha"/>
<feOffset dy="2"/>
<feGaussianBlur stdDeviation="7.5"/>
<feComposite in2="hardAlpha" operator="out"/>
<feColorMatrix type="matrix" values="0 0 0 0 0.454902 0 0 0 0 0.317647 0 0 0 0 0.176471 0 0 0 0.15 0"/>
<feBlend mode="normal" in2="BackgroundImageFix" result="effect1_dropShadow_274_1805"/>
<feBlend mode="normal" in="SourceGraphic" in2="effect1_dropShadow_274_1805" result="shape"/>
</filter>
<clipPath id="clip0_274_1805">
<rect width="20" height="20" fill="white" transform="translate(28.5 26)"/>
</clipPath>
</defs>
</svg>
