<svg width="30" height="30" viewBox="0 0 30 30" fill="none" xmlns="http://www.w3.org/2000/svg">
<path d="M23.3496 16.4648H5.88867C5.07949 16.4648 4.42383 15.8092 4.42383 15C4.42383 14.1908 5.07949 13.5352 5.88867 13.5352H23.3496C24.1588 13.5352 24.8145 14.1908 24.8145 15C24.8145 15.8092 24.1588 16.4648 23.3496 16.4648Z" fill="#74512D"/>
<path d="M16.6412 23.3936C16.4395 23.3938 16.2398 23.3523 16.0549 23.2716C15.87 23.1909 15.7037 23.0729 15.5666 22.9248C15.0164 22.3319 15.0516 21.4049 15.6446 20.8547L21.9416 15.0147L15.4541 9.15882C14.8535 8.61682 14.8061 7.69046 15.3481 7.08987C15.8901 6.48929 16.8164 6.44182 17.417 6.98382L25.0928 13.9125C25.3981 14.1879 25.5733 14.5787 25.5762 14.9901C25.5791 15.4014 25.4092 15.7946 25.1074 16.074L17.6367 23.0028C17.3663 23.2543 17.0106 23.3939 16.6412 23.3936Z" fill="#74512D"/>
</svg>
