<svg width="20" height="20" viewBox="0 0 20 20" fill="none" xmlns="http://www.w3.org/2000/svg">
<g clip-path="url(#clip0_189_3697)">
<path d="M11.6714 12.2538C11.1739 12.5855 10.5959 12.7609 10 12.7609C9.40414 12.7609 8.82617 12.5855 8.32859 12.2538L0.133164 6.79001C0.087922 6.75976 0.0435173 6.72828 0 6.6956L0 15.6486C0 16.6751 0.833008 17.4897 1.84113 17.4897H18.1588C19.1853 17.4897 20 16.6567 20 15.6486V6.69556C19.9564 6.72833 19.9119 6.75987 19.8665 6.79017L11.6714 12.2538Z" fill="#AF8F6F"/>
<path d="M0.783204 5.81487L8.97863 11.2787C9.28887 11.4855 9.64441 11.5889 9.99996 11.5889C10.3555 11.5889 10.7111 11.4855 11.0214 11.2787L19.2168 5.81487C19.7072 5.48812 20 4.94124 20 4.35101C20 3.33612 19.1743 2.5105 18.1595 2.5105H1.84051C0.825665 2.51054 9.68791e-07 3.33616 9.68791e-07 4.35198C-0.000303273 4.64152 0.0710559 4.92662 0.207714 5.18188C0.344372 5.43713 0.54208 5.6546 0.783204 5.81487Z" fill="#AF8F6F"/>
</g>
<defs>
<clipPath id="clip0_189_3697">
<rect width="20" height="20" fill="white"/>
</clipPath>
</defs>
</svg>
