<svg width="22" height="16" viewBox="0 0 22 16" fill="none" xmlns="http://www.w3.org/2000/svg">
<path d="M22 5.59775H0V1.17245C1.13937e-05 1.07185 0.0399798 0.975371 0.111115 0.904236C0.18225 0.833101 0.278727 0.793133 0.379327 0.793121H21.6207C21.7213 0.793133 21.8177 0.833101 21.8889 0.904236C21.96 0.975371 22 1.07185 22 1.17245L22 5.59775Z" fill="#FAB446"/>
<path d="M21.6206 15.2069H0.379327C0.278727 15.2069 0.18225 15.1669 0.111115 15.0958C0.0399798 15.0246 1.13937e-05 14.9282 0 14.8276L0 10.4023H22V14.8276C22 14.9282 21.96 15.0247 21.8889 15.0958C21.8177 15.1669 21.7212 15.2069 21.6206 15.2069Z" fill="#73AF00"/>
<path d="M0 5.59766H22V10.402H0V5.59766Z" fill="#F5F5F5"/>
<path d="M10.9997 10.0388C9.87548 10.0388 8.96094 9.12426 8.96094 8.00002C8.96094 6.87579 9.87548 5.96124 10.9997 5.96124C12.124 5.96124 13.0385 6.87579 13.0385 8.00002C13.0385 9.12426 12.124 10.0388 10.9997 10.0388ZM10.9997 6.34053C10.0846 6.34053 9.34022 7.08488 9.34022 8.00002C9.34022 8.91517 10.0846 9.65952 10.9997 9.65952C11.9149 9.65952 12.6592 8.91517 12.6592 8.00002C12.6592 7.08488 11.9149 6.34053 10.9997 6.34053Z" fill="#41479B"/>
<path d="M10.9997 8.23115C11.1273 8.23115 11.2308 8.12767 11.2308 8.00002C11.2308 7.87237 11.1273 7.76889 10.9997 7.76889C10.872 7.76889 10.7686 7.87237 10.7686 8.00002C10.7686 8.12767 10.872 8.23115 10.9997 8.23115Z" fill="#41479B"/>
<path d="M10.9995 8.03472L10.4121 8.09401L9.15039 8.03472V7.96536L10.4121 7.90607L10.9995 7.96536V8.03472ZM10.9995 8.03472L11.5869 8.09401L12.8486 8.03472V7.96536L11.5869 7.90607L10.9995 7.96536V8.03472Z" fill="#41479B"/>
<path d="M10.9655 8.00003L10.9062 7.41264L10.9655 6.15091H11.0349L11.0942 7.41264L11.0349 8.00003H10.9655ZM10.9655 8.00003L10.9062 8.58741L10.9655 9.84914H11.0349L11.0942 8.58741L11.0349 8.00003H10.9655Z" fill="#41479B"/>
<path d="M10.9755 8.02452L10.5182 7.65117L9.66797 6.71703L9.717 6.668L10.6511 7.51826L11.0245 7.97554L10.9755 8.02452Z" fill="#41479B"/>
<path d="M10.9756 8.02454L11.3489 8.48181L12.2831 9.33208L12.3321 9.28305L11.4818 8.34891L11.0246 7.97556L10.9756 8.02454Z" fill="#41479B"/>
<path d="M10.9755 7.97554L11.3489 7.51826L12.283 6.668L12.332 6.71703L11.4818 7.65117L11.0245 8.02452L10.9755 7.97554ZM10.9755 7.97554L10.5182 8.34889L9.66797 9.28303L9.717 9.33206L10.6511 8.4818L11.0245 8.02452L10.9755 7.97554Z" fill="#41479B"/>
<path d="M11.0132 8.0321L10.4932 8.31165L9.30487 8.73971L9.27832 8.67564L10.4213 8.13801L10.9867 7.96799L11.0132 8.0321Z" fill="#41479B"/>
<path d="M11.0129 8.0321L11.5782 7.86207L12.7212 7.32444L12.6947 7.26038L11.5063 7.68843L10.9863 7.96799L11.0129 8.0321Z" fill="#41479B"/>
<path d="M10.9684 8.01332L10.6888 7.49331L10.2607 6.30497L10.3248 6.27841L10.8624 7.42142L11.0325 7.98676L10.9684 8.01332Z" fill="#41479B"/>
<path d="M10.9678 8.01331L11.1378 8.57865L11.6754 9.72166L11.7395 9.69511L11.3114 8.50676L11.0319 7.98676L10.9678 8.01331Z" fill="#41479B"/>
<path d="M10.9867 8.0321L10.4213 7.86207L9.27832 7.32444L9.30487 7.26038L10.4932 7.68843L11.0132 7.96799L10.9867 8.0321ZM10.9867 8.0321L11.5067 8.31165L12.695 8.7397L12.7216 8.67564L11.5786 8.13801L11.0132 7.96799L10.9867 8.0321Z" fill="#41479B"/>
<path d="M10.9678 7.98676L11.1378 7.42142L11.6754 6.27841L11.7395 6.30497L11.3114 7.49331L11.0319 8.01332L10.9678 7.98676Z" fill="#41479B"/>
<path d="M10.9684 7.98676L10.6888 8.50676L10.2607 9.69511L10.3248 9.72166L10.8624 8.57865L11.0325 8.01331L10.9684 7.98676Z" fill="#41479B"/>
<path d="M11.0003 8.31183C11.1724 8.31183 11.312 8.17224 11.312 8.00004C11.312 7.82785 11.1724 7.68826 11.0003 7.68826C10.8281 7.68826 10.6885 7.82785 10.6885 8.00004C10.6885 8.17224 10.8281 8.31183 11.0003 8.31183Z" fill="#F5F5F5"/>
<path d="M11.0004 8.18699C11.1037 8.18699 11.1874 8.10329 11.1874 8.00004C11.1874 7.89678 11.1037 7.81308 11.0004 7.81308C10.8972 7.81308 10.8135 7.89678 10.8135 8.00004C10.8135 8.10329 10.8972 8.18699 11.0004 8.18699Z" fill="#41479B"/>
</svg>
