<svg width="85" height="85" viewBox="0 0 85 85" fill="none" xmlns="http://www.w3.org/2000/svg">
<g filter="url(#filter0_d_189_3713)">
<circle cx="42.5" cy="42.5" r="22.5" fill="white"/>
<circle cx="42.5" cy="42.5" r="22" stroke="#74512D"/>
</g>
<g clip-path="url(#clip0_189_3713)">
<path d="M44.7578 43C44.7578 43.9708 43.9708 44.7578 43 44.7578C42.0292 44.7578 41.2422 43.9708 41.2422 43C41.2422 42.0292 42.0292 41.2422 43 41.2422C43.9708 41.2422 44.7578 42.0292 44.7578 43Z" fill="#AF8F6F"/>
<path d="M45.9688 37.6875H40.0312C38.7388 37.6875 37.6875 38.7388 37.6875 40.0312V45.9688C37.6875 47.2612 38.7388 48.3125 40.0312 48.3125H45.9688C47.2612 48.3125 48.3125 47.2612 48.3125 45.9688V40.0312C48.3125 38.7388 47.2612 37.6875 45.9688 37.6875ZM43 45.9297C41.3846 45.9297 40.0703 44.6154 40.0703 43C40.0703 41.3846 41.3846 40.0703 43 40.0703C44.6154 40.0703 45.9297 41.3846 45.9297 43C45.9297 44.6154 44.6154 45.9297 43 45.9297ZM46.3594 40.2266C46.0357 40.2266 45.7734 39.9643 45.7734 39.6406C45.7734 39.317 46.0357 39.0547 46.3594 39.0547C46.683 39.0547 46.9453 39.317 46.9453 39.6406C46.9453 39.9643 46.683 40.2266 46.3594 40.2266Z" fill="#AF8F6F"/>
<path d="M47.7266 33H38.2734C35.3657 33 33 35.3657 33 38.2734V47.7266C33 50.6343 35.3657 53 38.2734 53H47.7266C50.6343 53 53 50.6343 53 47.7266V38.2734C53 35.3657 50.6343 33 47.7266 33ZM49.4844 45.9688C49.4844 47.9072 47.9072 49.4844 45.9688 49.4844H40.0312C38.0928 49.4844 36.5156 47.9072 36.5156 45.9688V40.0312C36.5156 38.0928 38.0928 36.5156 40.0312 36.5156H45.9688C47.9072 36.5156 49.4844 38.0928 49.4844 40.0312V45.9688Z" fill="#AF8F6F"/>
</g>
<defs>
<filter id="filter0_d_189_3713" x="0" y="0" width="85" height="85" filterUnits="userSpaceOnUse" color-interpolation-filters="sRGB">
<feFlood flood-opacity="0" result="BackgroundImageFix"/>
<feColorMatrix in="SourceAlpha" type="matrix" values="0 0 0 0 0 0 0 0 0 0 0 0 0 0 0 0 0 0 127 0" result="hardAlpha"/>
<feOffset/>
<feGaussianBlur stdDeviation="10"/>
<feComposite in2="hardAlpha" operator="out"/>
<feColorMatrix type="matrix" values="0 0 0 0 0.454902 0 0 0 0 0.317647 0 0 0 0 0.176471 0 0 0 0.15 0"/>
<feBlend mode="normal" in2="BackgroundImageFix" result="effect1_dropShadow_189_3713"/>
<feBlend mode="normal" in="SourceGraphic" in2="effect1_dropShadow_189_3713" result="shape"/>
</filter>
<clipPath id="clip0_189_3713">
<rect width="20" height="20" fill="white" transform="translate(33 33)"/>
</clipPath>
</defs>
</svg>
